<?xml version="1.0" encoding="UTF-8" standalone="no"?>
<!-- Created with Inkscape (http://www.inkscape.org/) -->

<svg
   xmlns:dc="http://purl.org/dc/elements/1.1/"
   xmlns:cc="http://creativecommons.org/ns#"
   xmlns:rdf="http://www.w3.org/1999/02/22-rdf-syntax-ns#"
   xmlns:svg="http://www.w3.org/2000/svg"
   xmlns="http://www.w3.org/2000/svg"
   xmlns:sodipodi="http://sodipodi.sourceforge.net/DTD/sodipodi-0.dtd"
   xmlns:inkscape="http://www.inkscape.org/namespaces/inkscape"
   width="50mm"
   height="50mm"
   viewBox="0 0 50 50"
   version="1.1"
   id="svg848"
   sodipodi:docname="map.svg"
   inkscape:version="0.92.4 (5da689c313, 2019-01-14)">
  <defs
     id="defs842">
    <inkscape:path-effect
       effect="bspline"
       id="path-effect1405"
       is_visible="true"
       weight="33.333333"
       steps="2"
       helper_size="0"
       apply_no_weight="true"
       apply_with_weight="true"
       only_selected="false" />
  </defs>
  <sodipodi:namedview
     id="base"
     pagecolor="#ffffff"
     bordercolor="#666666"
     borderopacity="1.0"
     inkscape:pageopacity="0.0"
     inkscape:pageshadow="2"
     inkscape:zoom="2.8"
     inkscape:cx="65.445341"
     inkscape:cy="106.14925"
     inkscape:document-units="mm"
     inkscape:current-layer="layer1"
     showgrid="false"
     inkscape:window-width="1366"
     inkscape:window-height="705"
     inkscape:window-x="-8"
     inkscape:window-y="-8"
     inkscape:window-maximized="1" />
  <metadata
     id="metadata845">
    <rdf:RDF>
      <cc:Work
         rdf:about="">
        <dc:format>image/svg+xml</dc:format>
        <dc:type
           rdf:resource="http://purl.org/dc/dcmitype/StillImage" />
        <dc:title></dc:title>
      </cc:Work>
    </rdf:RDF>
  </metadata>
  <g
     inkscape:label="Calque 1"
     inkscape:groupmode="layer"
     id="layer1"
     transform="translate(0,-247)">
    <path
       style="fill:none;stroke:#0000c8;stroke-width:0.26458332px;stroke-linecap:butt;stroke-linejoin:miter;stroke-opacity:1"
       d="m 0,297 c 0.2227246,-0.0446 0.44412881,-0.0963 0.66817382,-0.13364 0.0878777,-0.0146 0.17817968,0 0.26726951,0 0.17817967,0 0.35635937,0 0.53453907,0 0.534539,0 1.0690781,0 1.6036171,0 0.1336349,0 0.2672696,0 0.4009043,0 0.1336347,0 0.2698647,0.0262 0.4009043,0 0.097671,-0.0195 0.1690193,-0.11725 0.2672694,-0.13363 0.2084464,-0.0347 0.8019277,0 1.0690783,0 0.1336347,0 0.2712596,0.0324 0.4009041,0 0.061115,-0.0153 0.07729,-0.10546 0.1336349,-0.13363 0.039842,-0.0199 0.08909,0 0.1336347,0 0.1336347,-0.0446 0.2801149,-0.0612 0.4009044,-0.13364 0.1080373,-0.0648 0.1545788,-0.21092 0.2672693,-0.26727 0.2672697,-0.13363 0.2004523,0.0668 0.4009044,0 0.4844648,-0.16149 0.095107,-0.0634 0.4009043,-0.26727 0.082877,-0.0553 0.1781797,-0.0891 0.2672697,-0.13363 0.08909,-0.0445 0.1727753,-0.10214 0.2672693,-0.13364 0.1781797,-0.0445 0.3563594,-0.0891 0.5345391,-0.13363 0.044545,-0.0445 0.077289,-0.10547 0.1336347,-0.13364 0.269508,-0.13475 0.4346408,-0.0921 0.6681739,-0.26727 0.1007936,-0.0756 0.1664759,-0.19167 0.2672694,-0.26727 0.079685,-0.0598 0.1968378,-0.0632 0.2672697,-0.13363 0.15749,-0.15749 0.2434142,-0.37705 0.4009043,-0.53454 0.0315,-0.0315 0.102137,0.0315 0.133635,0 0.506902,-0.5069 0.07484,-0.25837 0.400904,-0.80181 0.06482,-0.10804 0.210924,-0.15458 0.267269,-0.26727 0.03984,-0.0797 -0.03309,-0.18455 0,-0.26727 0.05965,-0.14912 0.195444,-0.25725 0.26727,-0.4009 0.356359,-0.71272 -0.155252,-0.10121 0.400904,-0.93545 0.06989,-0.10483 0.191675,-0.16647 0.26727,-0.26726 0.05976,-0.0797 0.08909,-0.17819 0.133635,-0.26727 0.04454,-0.0891 0.09664,-0.17479 0.133634,-0.26728 0.05232,-0.13078 0.06116,-0.28011 0.133635,-0.4009 0.06482,-0.10803 0.191674,-0.16647 0.26727,-0.26727 0.04454,-0.0891 0.08909,-0.17818 0.133634,-0.26727 0,-0.0445 -0.01992,-0.0938 0,-0.13363 0.02817,-0.0563 0.105463,-0.0773 0.133635,-0.13364 0.01992,-0.0398 -0.01992,-0.0938 0,-0.13363 0.278078,-0.55616 -0.0092,0.14286 0.26727,-0.13364 0.0315,-0.0315 -0.01992,-0.0938 0,-0.13363 0.02817,-0.0564 0.105462,-0.0773 0.133634,-0.13364 0.01992,-0.0398 -0.0315,-0.10213 0,-0.13363 0.0315,-0.0315 0.102137,0.0315 0.133635,0 0.0315,-0.0315 -0.0315,-0.10214 0,-0.13364 0.0043,-0.004 0.368495,0 0.400904,0 0.44545,0 0.890899,0 1.336348,0 0.077,0 0.619467,0.0244 0.668174,0 0.05634,-0.0282 0.07729,-0.10546 0.133635,-0.13363 0.03984,-0.0199 0.09379,0.0199 0.133635,0 0.05635,-0.0282 0.07729,-0.10546 0.133634,-0.13363 0.26727,-0.13364 0,0.26726 0.400905,0 0.534539,-0.35636 -0.311815,-0.22273 0.400904,-0.40091 0.08643,-0.0216 0.17991,0.0175 0.267269,0 0.155229,-0.031 0.515449,-0.16545 0.668174,-0.26727 0.563801,-0.37587 -0.725951,0.22934 0.534539,-0.4009 0.03984,-0.0199 0.09138,0.0141 0.133635,0 0.09449,-0.0315 0.17818,-0.0891 0.267269,-0.13364 0.237573,-0.11879 0.392953,-0.21222 0.668174,-0.26727 0.08736,-0.0175 0.193142,0.0494 0.26727,0 0.08288,-0.0553 0.05395,-0.2075 0.133635,-0.26727 0.11269,-0.0845 0.267269,-0.0891 0.400904,-0.13363 0.136599,-0.0455 0.821763,-0.28723 0.935443,-0.40091 0.07043,-0.0704 0.04115,-0.23027 0.133635,-0.26727 0.165436,-0.0662 0.37517,0.0797 0.534539,0 0.07968,-0.0398 -0.04942,-0.19314 0,-0.26726 0.05525,-0.0829 0.17818,-0.0891 0.267269,-0.13364 0.08909,-0.0446 0.170638,-0.10948 0.26727,-0.13364 0.08643,-0.0216 0.182751,0.0282 0.267269,0 0.05976,-0.0199 0.08909,-0.0891 0.133635,-0.13363 0.08909,-0.0891 0.166476,-0.19167 0.26727,-0.26727 0.414326,-0.31074 0.119716,-0.0633 0.400904,-0.13363 0.237943,0.26838 0.400904,-0.22273 0.534539,-0.26727 0.08452,-0.0282 0.18084,0.0216 0.26727,0 0.215743,-0.0539 0.265062,-0.13143 0.400904,-0.26727 0.04454,-0.0446 0.07387,-0.11372 0.133635,-0.13364 0.08452,-0.0282 0.182751,0.0282 0.267269,0 0.119527,-0.0398 0.162438,-0.19738 0.26727,-0.26727 0.08288,-0.0553 0.196838,-0.0632 0.267269,-0.13363 0.0315,-0.0315 -0.03984,-0.11372 0,-0.13364 0.07969,-0.0398 0.17818,0 0.26727,0 0.04454,-0.0891 0.0632,-0.19683 0.133635,-0.26727 0.0315,-0.0315 0.108925,0.0371 0.133634,0 0.07814,-0.1172 0.07064,-0.27491 0.133635,-0.4009 0.02817,-0.0564 0.09869,-0.0812 0.133634,-0.13364 0.05525,-0.0829 0.0632,-0.19683 0.133636,-0.26727 0.0315,-0.0315 0.102137,0.0315 0.133633,0 0.07043,-0.0704 0.0632,-0.19683 0.133636,-0.26726 0.178181,-0.17818 0.12823,0.28348 0.267269,-0.13364 0.02817,-0.0845 -0.03984,-0.18758 0,-0.26727 0.01992,-0.0398 0.102137,0.0315 0.133636,0 0.0315,-0.0315 -0.01992,-0.0938 0,-0.13363 0.147738,-0.29548 0.08294,-0.0415 0.267268,-0.13364 0.05635,-0.0282 0.08909,-0.0891 0.133636,-0.13363 0.04454,-0.0446 0.105463,-0.0773 0.133633,-0.13364 0.01992,-0.0398 -0.0315,-0.10213 0,-0.13363 0.07043,-0.0704 0.19684,-0.0632 0.267272,-0.13364 0.07043,-0.0704 0.0632,-0.19683 0.133633,-0.26727 0.0315,-0.0315 0.102137,0.0315 0.133636,0 0.276494,-0.27649 -0.422521,0.0108 0.133635,-0.26727 0.03984,-0.0199 0.09379,0.0199 0.133633,0 0.05635,-0.0282 0.07729,-0.10546 0.133636,-0.13363 0.03984,-0.0199 0.09379,0.0199 0.133633,0 0.05635,-0.0282 0.07729,-0.10546 0.133636,-0.13363 0.07968,-0.0399 0.204274,0.063 0.267269,0 0.0315,-0.0315 0,-0.0891 0,-0.13364 0.08909,-0.0445 0.172775,-0.10214 0.267271,-0.13364 0.131244,-0.0437 0.711132,0.0453 0.801807,0 0.03984,-0.0199 -0.0315,-0.10213 0,-0.13363 0.06682,-0.0668 0.334087,0.0668 0.400905,0 0.0315,-0.0315 -0.0315,-0.10214 0,-0.13363 0.02857,-0.0286 0.460864,0.0245 0.53454,0 0.347215,0.0937 0.231868,-0.31639 0.400905,-0.40091 0.119869,-0.0599 1.061968,0.0563 1.202711,0 0.09248,-0.037 0.05076,-0.21202 0.133635,-0.26727 0.07413,-0.0494 0.179909,0.0175 0.267269,0 0.138129,-0.0276 0.270116,-0.0813 0.400905,-0.13363 0.09248,-0.037 0.181859,-0.0824 0.267269,-0.13364 0.137721,-0.0826 0.251783,-0.20762 0.400904,-0.26727 0.08272,-0.0331 0.184552,0.0331 0.267269,0 0.149122,-0.0597 0.257252,-0.19544 0.400905,-0.26727 0.125992,-0.063 0.29269,-0.0435 0.400904,-0.13363 0.171104,-0.14259 0.243414,-0.37705 0.400905,-0.53454 0.07043,-0.0704 0.178181,-0.0891 0.267269,-0.13364 0.178181,-0.0891 0.361577,-0.16843 0.53454,-0.26727 0.139449,-0.0797 0.261456,-0.18758 0.400905,-0.26726 0.172963,-0.0988 0.356359,-0.17819 0.534537,-0.26727 0.08909,-0.0446 0.17479,-0.0967 0.267272,-0.13364 0.192506,-0.077 0.489088,-0.13295 0.668173,-0.26727 0.201586,-0.15119 0.332952,-0.38335 0.534538,-0.53454 0.07969,-0.0598 0.187584,-0.0739 0.267269,-0.13363 0.100796,-0.0756 0.166476,-0.19168 0.267271,-0.26727 0.15937,-0.11953 0.363718,-0.16478 0.534538,-0.26727 0.137721,-0.0826 0.248539,-0.21648 0.400905,-0.26727 0.126778,-0.0423 0.271259,0.0324 0.400904,0 0.06112,-0.0153 0.08122,-0.0987 0.133636,-0.13364 0.932738,-0.62182 -0.657013,0.59299 0.668174,-0.4009 0.03515,-0.0263 0.254428,-0.26406 0.267268,-0.26727 0.321384,-0.0804 0.414888,0.11965 0.668174,-0.13364 0.276495,-0.27649 -0.422521,0.0108 0.133636,-0.26726 0.100224,-0.0501 0.334086,0.10022 0.400904,0 0.07413,-0.1112 -0.04226,-0.27413 0,-0.40091 0.01408,-0.0423 0.08909,0 0.133633,0 0.04455,0 0.08909,0 0.133636,0 0.356359,0 -0.04454,0.0446 0.133633,-0.13363 0.03657,-0.0366 0.462045,0.0362 0.534541,0 0.05635,-0.0282 0.07387,-0.11372 0.133635,-0.13364 0.0739,-0.0246 0.667232,0 0.801807,0 0.53454,0 1.069078,0 1.603618,0 0.09295,0 0.619848,0.0242 0.668174,0 0.05635,-0.0282 0.07729,-0.10546 0.133635,-0.13363 0.03984,-0.0199 0.102138,0.0315 0.133634,0 0.0315,-0.0315 -0.0315,-0.10214 0,-0.13364 0.063,-0.063 0.182753,0.0282 0.267271,0 0.188987,-0.063 0.345551,-0.20427 0.534538,-0.26727 0.08452,-0.0282 0.204274,0.063 0.267269,0 0.0315,-0.0315 -0.0315,-0.10213 0,-0.13363 0.03216,-0.0322 0.502382,0.0322 0.53454,0 0.0315,-0.0315 -0.0315,-0.10214 0,-0.13364 0.0315,-0.0315 0.08976,0.008 0.133633,0 C 49.542265,272.1035 49.770408,272.04798 50,272"
       id="path1399"
       inkscape:connector-curvature="0" />
    <path
       style="fill:none;stroke:#000000;stroke-width:0.365;stroke-linecap:butt;stroke-linejoin:miter;stroke-opacity:1;stroke-miterlimit:4;stroke-dasharray:none"
       d="M 20,272 0,297 h 40 l 10,-25 z"
       id="path1393"
       inkscape:connector-curvature="0"
       sodipodi:nodetypes="ccccc" />
    <g
       id="layer1-1"
       inkscape:label="Calque 1"
       transform="matrix(0.11654612,0,0,0.11654612,12.991663,250.49557)">
      <g
         inkscape:label="Calque 1"
         id="layer1-0"
         transform="translate(32.794874,-29.894301)">
        <g
           id="g4594"
           transform="matrix(2.1183013,0,0,2.1183013,-136.51564,110.52315)">
          <g
             id="g4604">
            <circle
               style="fill:#00c800;fill-opacity:1;stroke:#00c800;stroke-width:0.66873217;stroke-miterlimit:4;stroke-dasharray:none;stroke-dashoffset:0;stroke-opacity:1"
               id="path3743"
               cx="97.944153"
               cy="-2.1623249"
               r="34.382549" />
            <g
               transform="matrix(2.3144611,0,0,2.3144611,-55.027261,-132.40791)"
               id="g4584">
              <path
                 sodipodi:nodetypes="cccc"
                 inkscape:connector-curvature="0"
                 id="path4558"
                 d="M 51.240337,55.118007 65.953112,100.92782 80.915262,55.118008 Z"
                 style="fill:#00c800;fill-opacity:1;stroke:#00c800;stroke-width:0.21376203px;stroke-linecap:butt;stroke-linejoin:miter;stroke-opacity:1" />
              <circle
                 r="10.330644"
                 cy="56.274689"
                 cx="66.09375"
                 id="path3741"
                 style="fill:#000000;fill-opacity:1;stroke:#00c800;stroke-width:0.33871305;stroke-miterlimit:4;stroke-dasharray:none;stroke-dashoffset:0;stroke-opacity:1" />
              <flowRoot
                 inkscape:transform-center-y="-4.1954732"
                 inkscape:transform-center-x="19.497406"
                 transform="matrix(0.4850717,-9.9420449e-4,9.9420449e-4,0.4850717,28.758088,-367.66015)"
                 style="font-style:normal;font-weight:normal;font-size:18.66666603px;line-height:1.25;font-family:sans-serif;letter-spacing:0px;word-spacing:0px;fill:#ffffff;fill-opacity:1;stroke:#ffffff;stroke-opacity:1"
                 id="flowRoot4664"
                 xml:space="preserve"><flowRegion
                   style="fill:#ffffff;fill-opacity:1;stroke:#ffffff;stroke-opacity:1"
                   id="flowRegion4666"><rect
                     style="fill:#ffffff;fill-opacity:1;stroke:#ffffff;stroke-opacity:1"
                     y="862.51971"
                     x="57.142857"
                     height="125.71429"
                     width="214.28572"
                     id="rect4668" /></flowRegion><flowPara
                   style="font-style:normal;font-variant:normal;font-weight:normal;font-stretch:normal;font-family:'Times New Roman';-inkscape-font-specification:'Times New Roman, ';stroke:#ffffff;stroke-opacity:1"
                   id="flowPara4670">CSV</flowPara></flowRoot>              <path
                 inkscape:connector-curvature="0"
                 id="path4676"
                 d="m 60.091665,59.008425 c -0.481957,-0.05809 -1.107197,-0.324261 -1.49641,-0.637042 -0.33001,-0.265203 -0.781458,-0.932389 -0.955264,-1.411766 -0.189005,-0.521301 -0.205425,-1.725758 -0.03053,-2.239547 0.506328,-1.487429 1.623142,-2.341609 3.067557,-2.34618 0.430793,-0.0014 0.636965,0.03276 1.011857,0.167489 0.63082,0.226699 0.649821,0.226342 0.720443,-0.01354 0.05545,-0.188344 0.0815,-0.205028 0.320115,-0.205028 h 0.259756 l 0.07473,1.08823 c 0.104117,1.516205 0.122689,1.382988 -0.189599,1.359972 -0.258153,-0.01902 -0.26546,-0.02607 -0.38018,-0.366371 -0.170275,-0.505101 -0.494087,-0.912572 -0.886189,-1.115145 -0.27476,-0.141948 -0.412379,-0.171093 -0.804595,-0.170393 -0.291469,5e-4 -0.561306,0.03924 -0.702749,0.100831 -0.561475,0.244513 -0.985271,0.86765 -1.134637,1.668334 -0.107812,0.577934 -0.03826,1.682182 0.134206,2.130706 0.192194,0.499832 0.615091,0.923837 1.076004,1.07882 0.394311,0.132589 1.056673,0.151174 1.389799,0.03899 0.384852,-0.129596 0.814599,-0.516809 1.227651,-1.106146 0.08044,-0.11477 0.08946,-0.114156 0.308012,0.02092 0.123831,0.07653 0.225146,0.160821 0.225146,0.187308 0,0.116834 -0.509224,0.816166 -0.762484,1.047137 -0.377597,0.344369 -0.655241,0.505561 -1.067004,0.619469 -0.479268,0.132584 -0.902552,0.163586 -1.405635,0.102952 z"
                 style="fill:#ffffff;fill-opacity:1;stroke:none;stroke-width:0.06308582" />
              <path
                 inkscape:connector-curvature="0"
                 id="path4678"
                 d="m 63.831475,57.776105 v -1.233801 l 0.260194,0.0194 0.260194,0.0194 0.103065,0.410058 c 0.139295,0.5542 0.305118,0.815806 0.653729,1.031336 0.348608,0.215527 0.993504,0.298116 1.308624,0.167589 0.461741,-0.191258 0.635667,-0.689367 0.383294,-1.097716 -0.126634,-0.204899 -0.310181,-0.33077 -1.500743,-1.029168 -1.171405,-0.687161 -1.532006,-1.138268 -1.530827,-1.915049 7.5e-4,-0.512146 0.19099,-0.942987 0.565306,-1.280449 0.417763,-0.37663 0.764341,-0.504918 1.358195,-0.502746 0.465427,0.0017 0.716613,0.06011 1.309243,0.304428 0.08798,0.03627 0.118636,0.0055 0.149828,-0.150487 0.03671,-0.183537 0.05688,-0.196088 0.315218,-0.196088 h 0.276 v 1.261716 1.261717 H 67.46483 67.186863 l -0.04351,-0.316352 c -0.06439,-0.468196 -0.329483,-0.942222 -0.651936,-1.165775 -0.243128,-0.168557 -0.324827,-0.189647 -0.734635,-0.189647 -0.507316,0 -0.67359,0.08741 -0.820157,0.431156 -0.178341,0.418263 0.08377,0.722238 1.12617,1.306029 1.740025,0.974495 2.073591,1.335041 2.074081,2.241838 3.75e-4,0.690501 -0.395106,1.309134 -1.056482,1.652618 -0.485187,0.251981 -1.274685,0.272602 -2.037283,0.05321 -0.315137,-0.09066 -0.588926,-0.164842 -0.60842,-0.164842 -0.01949,0 -0.03544,0.07097 -0.03544,0.157715 0,0.144864 -0.02313,0.157714 -0.283885,0.157714 h -0.283887 z"
                 style="fill:#ffffff;fill-opacity:1;stroke:none;stroke-width:0.06308582" />
              <path
                 inkscape:connector-curvature="0"
                 id="path4682"
                 d="m 70.554967,56.692196 c -1.445941,-3.338187 -1.511544,-3.474513 -1.707927,-3.549178 -0.09139,-0.03475 -0.249489,-0.06318 -0.351321,-0.06318 -0.180124,0 -0.185151,-0.0086 -0.185151,-0.315428 v -0.315429 h 1.422887 1.422888 l -0.01923,0.299657 c -0.01712,0.266786 -0.03653,0.301595 -0.176943,0.317319 -0.427338,0.04785 -0.459224,0.0701 -0.422747,0.294879 0.0461,0.284096 1.451895,3.510306 1.505015,3.453919 0.102593,-0.108903 1.331088,-3.271809 1.338384,-3.445827 0.0075,-0.179452 -0.01498,-0.201406 -0.291505,-0.284441 -0.297409,-0.0893 -0.299658,-0.09203 -0.299658,-0.362743 v -0.272763 h 1.135545 1.135544 v 0.273899 c 0,0.262616 -0.0099,0.276869 -0.240349,0.345912 -0.132193,0.03961 -0.304554,0.140352 -0.383025,0.22388 -0.07847,0.08353 -0.649771,1.396978 -1.269558,2.918779 l -1.126885,2.766911 -0.240722,0.01646 -0.240723,0.01647 z"
                 style="fill:#ffffff;fill-opacity:1;stroke:none;stroke-width:0.06308582" />
            </g>
          </g>
        </g>
      </g>
    </g>
    <path
       style="fill:#00a021;stroke:none;stroke-width:0.50507629;fill-opacity:1"
       d="m 24.130102,187.51662 c 0.972272,-0.4345 2.904188,-1.32565 4.293148,-1.98034 1.38896,-0.6547 3.552584,-1.63426 4.808055,-2.17682 2.621163,-1.13274 6.77084,-4.78895 7.543667,-6.64659 0.288921,-0.69448 0.739255,-1.60362 1.000742,-2.02031 0.261487,-0.41669 1.081289,-2.00768 1.821783,-3.53553 2.029334,-4.18711 3.342695,-6.52158 5.469949,-9.72272 l 1.929923,-2.90419 4.117767,-0.008 c 3.954776,-0.007 7.014765,-0.67006 8.47851,-1.83633 0.379511,-0.30239 1.53917,-0.82328 2.577021,-1.15754 1.03785,-0.33427 2.013223,-0.81198 2.167494,-1.0616 0.405145,-0.65551 4.741089,-2.50289 5.874546,-2.50289 0.528992,0 1.092627,-0.34093 1.252524,-0.75762 0.159902,-0.41668 0.568817,-0.75761 0.908703,-0.75761 0.339886,0 1.736098,-0.56726 3.102688,-1.26057 1.36659,-0.69332 2.760823,-1.26153 3.09829,-1.2627 0.337466,-0.001 0.856851,-0.45668 1.15419,-1.01226 0.297338,-0.55559 0.951963,-1.01016 1.454721,-1.01016 0.502752,0 1.325476,-0.45457 1.828275,-1.01015 0.502798,-0.55558 1.292934,-1.01015 1.755862,-1.01015 0.462923,0 1.734583,-0.43518 2.825907,-0.96707 l 1.984222,-0.96707 0.434346,1.09334 c 0.404237,1.01755 0.491767,0.96155 1.26269,-0.80773 0.455852,-1.04619 1.574126,-2.35345 2.486804,-2.90708 0.912153,-0.55331 1.794091,-1.40246 1.959857,-1.88701 0.165772,-0.48454 0.934664,-1.56284 1.708654,-2.39622 0.77398,-0.83337 2.61411,-2.84167 4.08917,-4.46289 2.65618,-2.91938 5.71402,-4.86027 7.72505,-4.90331 1.6979,-0.0363 5.78808,-1.23921 6.44397,-1.89509 0.33439,-0.3344 1.41111,-0.608 2.3927,-0.608 0.98159,0 3.2658,-0.69927 5.07602,-1.55394 1.81022,-0.85467 4.0868,-1.91747 5.05907,-2.36177 0.97228,-0.44431 2.22234,-1.31816 2.77792,-1.94189 0.55559,-0.62372 3.2129,-2.26224 5.90515,-3.64115 2.69224,-1.37891 5.87422,-3.28569 7.07107,-4.2373 3.07153,-2.44217 4.77019,-3.43654 5.87059,-3.43654 0.52368,0 1.89341,-0.68186 3.04386,-1.51523 1.15044,-0.83338 2.31396,-1.51523 2.58561,-1.51523 0.82387,0 4.56561,-2.09201 4.56561,-2.55264 0,-0.855604 3.89867,-1.482394 9.23776,-1.485154 4.3257,-0.0022 5.83619,-0.198447 7.32361,-0.951331 1.03065,-0.521683 2.66941,-1.116139 3.64168,-1.321013 0.97227,-0.204874 2.05736,-0.605926 2.41132,-0.891226 0.35395,-0.2853 0.73,-0.429518 0.83565,-0.320485 0.10567,0.109034 -8.13889,21.048419 -18.32121,46.531969 l -18.51333,46.33372 -64.144689,-0.005 c -58.60518,-0.004 -63.992023,-0.0726 -62.376919,-0.7944 z"
       id="path1460"
       inkscape:connector-curvature="0"
       transform="matrix(0.26458333,0,0,0.26458333,0,247)" />
    <path
       style="fill:#a0a02e;stroke:none;stroke-width:0.50507629;fill-opacity:1"
       d="M 38.829259,141.66911 C 73.616086,98.185942 75.973625,95.35845 77.325745,95.498712 c 1.434805,0.148839 1.467257,0.233202 8.467528,22.011308 3.86496,12.02404 7.027202,22.20215 7.027202,22.61801 0,0.41587 -0.397748,0.87922 -0.883884,1.02968 -0.486136,0.15046 -1.278545,0.48425 -1.760913,0.74176 -0.482368,0.25752 -1.299455,0.46821 -1.815754,0.46821 -0.516299,0 -1.350104,0.45457 -1.852903,1.01015 -0.502798,0.55559 -1.333517,1.01015 -1.846048,1.01015 -0.512526,0 -1.38644,0.45457 -1.942024,1.01016 -0.555584,0.55558 -1.35821,1.01015 -1.783616,1.01015 -0.425411,0 -0.900076,0.32993 -1.054816,0.73318 -0.154746,0.40326 -1.093187,1.00112 -2.085435,1.32859 -0.992248,0.32747 -3.074531,1.21066 -4.627292,1.96265 -1.552766,0.75198 -3.561883,1.65904 -4.464707,2.01568 -0.902824,0.35664 -1.641498,0.83786 -1.641498,1.06936 0,0.2315 -0.852316,0.57017 -1.894036,0.7526 -1.04172,0.18243 -2.12132,0.59048 -2.399112,0.90677 -1.00089,1.13961 -4.192341,1.83777 -8.400904,1.83777 -4.934618,0 -4.879337,-0.0426 -8.282945,6.38575 -1.008522,1.90478 -2.131082,3.80416 -2.494579,4.22085 -0.363497,0.41669 -1.178626,2.00768 -1.811397,3.53554 -0.632772,1.52785 -1.453283,3.13674 -1.823358,3.5753 -0.370075,0.43856 -0.672864,1.08785 -0.672864,1.44286 0,1.25739 -5.017357,5.37711 -7.703717,6.32548 -1.457691,0.51461 -3.253644,1.35479 -3.991006,1.86708 -0.737363,0.51227 -1.631562,0.93141 -1.987109,0.93141 -0.355548,0 -1.589481,0.45652 -2.742075,1.01448 -1.773168,0.85837 -3.556613,1.06531 -11.590504,1.34487 l -9.494879,0.3304 z"
       id="path1462"
       inkscape:connector-curvature="0"
       transform="matrix(0.26458333,0,0,0.26458333,0,247)" />
    <path
       style="fill:#a0a0a0;stroke:none;stroke-width:0.50507629"
       d="m 96.879255,137.74994 c -0.02492,-0.44527 13.507265,-41.90601 13.760005,-42.158754 0.11136,-0.111358 16.20553,-0.144102 35.76482,-0.07276 19.5593,0.07134 35.10779,0.316757 34.5522,0.54538 -0.55558,0.228622 -1.40481,0.626369 -1.88718,0.883883 -0.48237,0.257514 -3.25541,0.468207 -6.16232,0.468207 -6.10378,0 -10.38578,0.746095 -10.38578,1.80962 0,0.393668 -0.34806,0.715761 -0.77346,0.715761 -0.42541,0 -0.9043,0.340933 -1.06419,0.757613 -0.15991,0.41668 -0.70959,0.75761 -1.22153,0.75761 -0.51193,0 -1.9411,0.68185 -3.17593,1.51523 -1.23483,0.83339 -2.50758,1.51523 -2.82832,1.51523 -1.01981,0 -3.73969,1.59151 -6.15256,3.60009 -1.28511,1.06978 -4.65653,3.11475 -7.49205,4.54437 -2.83553,1.42963 -5.2828,2.93108 -5.4384,3.33654 -0.30111,0.78468 -8.14309,4.68144 -9.4211,4.68144 -0.41725,0 -0.89911,0.22728 -1.07079,0.50508 -0.17169,0.27779 -1.31023,0.50507 -2.5301,0.50507 -1.32419,0 -2.38069,0.27443 -2.62184,0.68101 -0.36878,0.6218 -1.76223,1.01283 -5.95974,1.67243 -2.44952,0.38491 -5.3707,2.17153 -8.20749,5.01976 -1.45841,1.46431 -2.65165,2.77336 -2.65165,2.90903 0,0.13568 -0.62503,0.92744 -1.38896,1.75951 -0.76393,0.83206 -1.892175,2.15643 -2.507213,2.94303 -0.615038,0.78662 -1.126428,1.28415 -1.136422,1.10562 z"
       id="path1464"
       inkscape:connector-curvature="0"
       transform="matrix(0.26458333,0,0,0.26458333,0,247)" />
  </g>
</svg>
